<?xml version="1.0" encoding="utf-8"?>
<!-- Generator: Adobe Illustrator 21.1.0, SVG Export Plug-In . SVG Version: 6.00 Build 0)  -->
<svg version="1.1" id="Layer_1" xmlns="http://www.w3.org/2000/svg" xmlns:xlink="http://www.w3.org/1999/xlink" x="0px" y="0px"
	 viewBox="0 0 1046.3 247.2" style="enable-background:new 0 0 1046.3 247.2;" xml:space="preserve">
<style type="text/css">
	.st0{fill:#139BD7;}
	.st1{fill:#006DA8;}
	.st2{fill:#083D5F;}
	.st3{fill:none;stroke:#05486D;stroke-width:1.01;stroke-miterlimit:10;}
	.st4{fill:none;stroke:#05486D;stroke-width:0.51;stroke-miterlimit:10;}
	.st5{fill:none;stroke:#083D5F;stroke-width:0.38;stroke-miterlimit:10;}
	.st6{fill:#2F77BC;}
	.st7{fill:#03A9DA;}
</style>
<title>HAProxy_Logo_Full_Color</title>
<g>
	<path class="st0" d="M349.7,176.9v-43.2h-52.5v43.2H277V70h20.2v45h52.5V70h20v106.9H349.7z"/>
	<path class="st1" d="M471.6,156.6h-55.9l-9.2,20.1h-21.8l47.9-106.8h22l47.9,106.9h-22L471.6,156.6z M443.6,92.3l-19.8,45.5h39.7
		L443.6,92.3z"/>
	<path class="st2" d="M568.9,145.3h-30.3v31.4h-20.1V69.9l50.4-0.2C621.1,69.7,621.2,145.3,568.9,145.3z M538.7,126.8h30.2
		c25.8,0,25.6-37.9,0-37.9h-30.3L538.7,126.8z"/>
	<path class="st2" d="M718.9,176.7H695L663.8,141h-19.3v35.7h-20.2v-107l50.8,0.2c25.2,0.2,38.5,16.9,38.5,35.4
		c0,14.7-6.7,29.5-27,33.6l32.4,36.5L718.9,176.7z M644.5,88.7v34.2h30.7c12.8,0,18.3-8.5,18.3-17.1s-5.6-17.1-18.3-17.1H644.5z"/>
	<path class="st2" d="M834.7,123.9c-0.3,27.6-17.3,55.3-54.8,55.3s-55-27-55-55.1s18-56.3,55-56.3S835,96,834.7,123.9z M744.8,124.4
		c0.5,17.6,9.9,36.3,35.1,36.3s34.7-18.9,35-36.5s-9.8-38.2-35-38.2S744.3,106.4,744.8,124.4z"/>
	<path class="st2" d="M910.1,69.9h22.1v0.9L896,122.7l37.2,53.4v0.6h-22.5l-27.3-40.1L856,176.7h-22.5v-0.6l37.1-53.4l-36-51.9v-0.9
		h22.1l26.7,39.8L910.1,69.9z"/>
	<path class="st2" d="M993.7,114l28.4-44.1h24.3v0.9l-42.6,61.8v44.1h-20.2v-44.1l-41.1-61.8v-0.9h24L993.7,114z"/>
	<g>
		<line class="st3" x1="123" y1="91.4" x2="97.3" y2="62.3"/>
		<line class="st4" x1="41.9" y1="69.1" x2="62.1" y2="98.3"/>
		<line class="st3" x1="123" y1="91.4" x2="148.6" y2="62.2"/>
		<line class="st3" x1="153.8" y1="123.9" x2="184.1" y2="98.3"/>
		<line class="st3" x1="153.8" y1="123.9" x2="184.1" y2="150.5"/>
		<line class="st3" x1="148.7" y1="183.9" x2="123" y2="155.4"/>
		<line class="st3" x1="97.4" y1="183.9" x2="123" y2="155.4"/>
		<line class="st3" x1="62.1" y1="149.3" x2="91.3" y2="123.8"/>
		<line class="st3" x1="62.1" y1="98.3" x2="91.3" y2="123.8"/>
		<line class="st3" x1="123" y1="91.4" x2="62.1" y2="98.3"/>
		<line class="st3" x1="123" y1="91.4" x2="184.1" y2="98.3"/>
		<line class="st3" x1="153.8" y1="123.9" x2="148.6" y2="62.2"/>
		<line class="st3" x1="153.8" y1="123.9" x2="148.7" y2="183.9"/>
		<line class="st3" x1="184.1" y1="150.5" x2="123" y2="155.4"/>
		<line class="st3" x1="62.1" y1="149.3" x2="123" y2="155.4"/>
		<line class="st3" x1="97.4" y1="183.9" x2="91.3" y2="123.8"/>
		<line class="st3" x1="97.3" y1="62.3" x2="91.3" y2="123.8"/>
		<line class="st4" x1="34.1" y1="106.2" x2="62.1" y2="98.3"/>
		<line class="st4" x1="68" y1="41.5" x2="97.3" y2="62.3"/>
		<line class="st4" x1="104" y1="28.3" x2="97.3" y2="62.3"/>
		<line class="st4" x1="104" y1="28.3" x2="148.6" y2="62.2"/>
		<line class="st4" x1="141.9" y1="28.3" x2="148.6" y2="62.2"/>
		<line class="st4" x1="177.9" y1="41.5" x2="148.6" y2="62.2"/>
		<line class="st4" x1="204.1" y1="69.1" x2="148.6" y2="62.2"/>
		<line class="st4" x1="184.1" y1="98.3" x2="204.1" y2="69.1"/>
		<line class="st4" x1="184.1" y1="98.3" x2="212.6" y2="106.2"/>
		<line class="st4" x1="184.1" y1="98.3" x2="211.9" y2="140.9"/>
		<line class="st4" x1="141.9" y1="28.3" x2="97.3" y2="62.3"/>
		<line class="st4" x1="184.1" y1="98.3" x2="177.9" y2="41.5"/>
		<line class="st4" x1="184.1" y1="150.5" x2="211.9" y2="140.9"/>
		<line class="st4" x1="184.1" y1="150.5" x2="212.6" y2="106.2"/>
		<line class="st4" x1="184.1" y1="150.5" x2="204.1" y2="177.6"/>
		<line class="st4" x1="184.1" y1="150.5" x2="178" y2="205.2"/>
		<line class="st4" x1="148.7" y1="183.9" x2="178" y2="205.2"/>
		<line class="st4" x1="148.7" y1="183.9" x2="204.1" y2="177.6"/>
		<line class="st4" x1="148.7" y1="183.9" x2="142" y2="218.4"/>
		<line class="st4" x1="148.7" y1="183.9" x2="104.1" y2="218.4"/>
		<line class="st4" x1="97.4" y1="183.9" x2="104.1" y2="218.4"/>
		<line class="st4" x1="97.4" y1="183.9" x2="142" y2="218.4"/>
		<line class="st4" x1="97.4" y1="183.9" x2="68.1" y2="205.2"/>
		<line class="st4" x1="97.4" y1="183.9" x2="41.9" y2="177.8"/>
		<line class="st4" x1="62.1" y1="149.3" x2="41.9" y2="177.8"/>
		<line class="st4" x1="62.1" y1="149.3" x2="68.1" y2="205.2"/>
		<line class="st4" x1="62.1" y1="149.3" x2="34" y2="140.5"/>
		<line class="st4" x1="62.1" y1="98.3" x2="34" y2="140.5"/>
		<line class="st4" x1="62.1" y1="149.3" x2="34.1" y2="106.2"/>
		<line class="st4" x1="68" y1="41.5" x2="62.1" y2="98.3"/>
		<line class="st4" x1="41.9" y1="69.1" x2="97.3" y2="62.3"/>
		<line class="st5" x1="68" y1="41.5" x2="46.5" y2="31.2"/>
		<line class="st5" x1="68" y1="41.5" x2="66.4" y2="17.9"/>
		<line class="st5" x1="104" y1="28.3" x2="66.4" y2="17.9"/>
		<line class="st5" x1="104" y1="28.3" x2="88" y2="8.3"/>
		<line class="st5" x1="104" y1="28.3" x2="110.8" y2="4.6"/>
		<line class="st5" x1="68" y1="41.5" x2="88" y2="8.3"/>
		<line class="st5" x1="141.9" y1="28.3" x2="110.8" y2="4.6"/>
		<line class="st5" x1="141.9" y1="28.3" x2="134.9" y2="3.7"/>
		<line class="st5" x1="104" y1="28.3" x2="134.9" y2="3.7"/>
		<line class="st5" x1="141.9" y1="28.3" x2="158.1" y2="8.3"/>
		<line class="st5" x1="177.9" y1="41.5" x2="158.1" y2="8.3"/>
		<line class="st5" x1="177.9" y1="41.5" x2="180" y2="17.9"/>
		<line class="st5" x1="141.9" y1="28.3" x2="180" y2="17.9"/>
		<line class="st5" x1="177.9" y1="41.5" x2="199.9" y2="30.1"/>
		<line class="st5" x1="177.9" y1="41.5" x2="216.3" y2="47.3"/>
		<line class="st5" x1="204.1" y1="69.1" x2="216.3" y2="47.3"/>
		<line class="st5" x1="204.1" y1="69.1" x2="199.9" y2="30.1"/>
		<line class="st5" x1="204.1" y1="69.1" x2="229.3" y2="67"/>
		<line class="st5" x1="204.1" y1="69.1" x2="238.7" y2="88.7"/>
		<line class="st5" x1="212.6" y1="106.2" x2="229.3" y2="67"/>
		<line class="st5" x1="212.6" y1="106.2" x2="238.7" y2="88.7"/>
		<line class="st5" x1="212.6" y1="106.2" x2="241.7" y2="112.1"/>
		<line class="st5" x1="211.9" y1="140.9" x2="241.7" y2="112.1"/>
		<line class="st5" x1="211.9" y1="140.9" x2="242.4" y2="135.2"/>
		<line class="st5" x1="212.6" y1="106.2" x2="242.4" y2="135.2"/>
		<line class="st5" x1="211.9" y1="140.9" x2="238" y2="158.3"/>
		<line class="st5" x1="204.1" y1="177.6" x2="238" y2="158.3"/>
		<line class="st5" x1="204.1" y1="177.6" x2="229.1" y2="180.1"/>
		<line class="st5" x1="211.9" y1="140.9" x2="229.1" y2="180.1"/>
		<line class="st5" x1="204.1" y1="177.6" x2="216" y2="199.7"/>
		<line class="st5" x1="204.1" y1="177.6" x2="199.6" y2="216.2"/>
		<line class="st5" x1="199.6" y1="216.2" x2="178" y2="205.2"/>
		<line class="st5" x1="178" y1="205.2" x2="179.7" y2="229.4"/>
		<line class="st5" x1="178" y1="205.2" x2="216" y2="199.7"/>
		<line class="st5" x1="178" y1="205.2" x2="158.1" y2="238.9"/>
		<line class="st5" x1="142" y1="218.4" x2="158.1" y2="238.9"/>
		<line class="st5" x1="142" y1="218.4" x2="179.7" y2="229.4"/>
		<line class="st5" x1="142" y1="218.4" x2="134.9" y2="243.5"/>
		<line class="st5" x1="142" y1="218.4" x2="110.9" y2="243.5"/>
		<line class="st5" x1="104.1" y1="218.4" x2="110.9" y2="243.5"/>
		<line class="st5" x1="104.1" y1="218.4" x2="134.9" y2="243.5"/>
		<line class="st5" x1="104.1" y1="218.4" x2="88.1" y2="238.9"/>
		<line class="st5" x1="68.1" y1="205.2" x2="88.1" y2="238.9"/>
		<line class="st5" x1="104.1" y1="218.4" x2="66.2" y2="230"/>
		<line class="st5" x1="68.1" y1="205.2" x2="66.2" y2="230"/>
		<line class="st5" x1="68.1" y1="205.2" x2="46.2" y2="217.1"/>
		<line class="st5" x1="41.9" y1="177.8" x2="46.2" y2="217.1"/>
		<line class="st5" x1="68.1" y1="205.2" x2="29.8" y2="200"/>
		<line class="st5" x1="41.9" y1="177.8" x2="29.8" y2="200"/>
		<line class="st5" x1="41.9" y1="177.8" x2="16.9" y2="180.2"/>
		<line class="st5" x1="41.9" y1="177.8" x2="7.4" y2="158.5"/>
		<line class="st5" x1="34" y1="140.5" x2="7.4" y2="158.5"/>
		<line class="st5" x1="34" y1="140.5" x2="3.8" y2="135.2"/>
		<line class="st5" x1="34" y1="140.5" x2="16.9" y2="180.2"/>
		<line class="st5" x1="34.1" y1="106.2" x2="3.8" y2="135.2"/>
		<line class="st5" x1="34" y1="140.5" x2="3.7" y2="112.1"/>
		<line class="st5" x1="34.1" y1="106.2" x2="8.2" y2="89"/>
		<line class="st5" x1="34.1" y1="106.2" x2="3.7" y2="112.1"/>
		<line class="st5" x1="34.1" y1="106.2" x2="17" y2="67.2"/>
		<line class="st5" x1="41.9" y1="69.1" x2="17" y2="67.2"/>
		<line class="st5" x1="41.9" y1="69.1" x2="8.2" y2="89"/>
		<line class="st5" x1="41.9" y1="69.1" x2="30.1" y2="48.3"/>
		<line class="st5" x1="41.9" y1="69.1" x2="46.5" y2="31.2"/>
		<line class="st5" x1="68" y1="41.5" x2="30.1" y2="48.3"/>
		
			<rect x="76.5" y="109.1" transform="matrix(6.981287e-03 -1 1 6.981287e-03 -33.1661 214.1346)" class="st1" width="29.4" height="29.4"/>
		
			<rect x="108.4" y="76.7" transform="matrix(6.981287e-03 -1 1 6.981287e-03 30.7585 213.8562)" class="st1" width="29.4" height="29.4"/>
		
			<rect x="108.4" y="141.1" transform="matrix(6.981287e-03 -1 1 6.981287e-03 -33.5904 277.7543)" class="st1" width="29.4" height="29.4"/>
		
			<rect x="140.3" y="109.1" transform="matrix(6.981287e-03 -1 1 6.981287e-03 30.1321 277.8793)" class="st1" width="29.4" height="29.4"/>
		
			<rect x="138.3" y="52" transform="matrix(6.981287e-03 -1 1 6.981287e-03 85.3418 210.3159)" class="st6" width="20.5" height="20.5"/>
		
			<rect x="87.3" y="52" transform="matrix(6.981287e-03 -1 1 6.981287e-03 34.6435 159.2598)" class="st6" width="20.5" height="20.5"/>
		
			<rect x="51.9" y="88.1" transform="matrix(6.981287e-03 -1 1 6.981287e-03 -36.6088 159.8107)" class="st6" width="20.5" height="20.5"/>
		
			<rect x="52" y="139.6" transform="matrix(9.999500e-03 -0.9999 0.9999 9.999500e-03 -88.188 210.6123)" class="st6" width="20.5" height="20.5"/>
		
			<rect x="174" y="139.2" transform="matrix(6.981287e-03 -1 1 6.981287e-03 33.5326 332.5615)" class="st6" width="20.5" height="20.5"/>
		
			<rect x="174.5" y="88.4" transform="matrix(9.999500e-03 -0.9999 0.9999 9.999500e-03 84.3155 282.3895)" class="st6" width="20.5" height="20.5"/>
		
			<rect x="35.1" y="62.4" transform="matrix(6.981287e-03 -1 1 6.981287e-03 -27.577 110.3953)" class="st0" width="13.4" height="13.4"/>
		
			<rect x="61.4" y="34.9" transform="matrix(6.981287e-03 -1 1 6.981287e-03 26.013 109.3781)" class="st0" width="13.4" height="13.4"/>
		
			<rect x="97.3" y="21.7" transform="matrix(6.981287e-03 -1 1 6.981287e-03 74.9047 132.2297)" class="st0" width="13.4" height="13.4"/>
		
			<rect x="27.3" y="99.6" transform="matrix(6.981287e-03 -1 1 6.981287e-03 -72.4671 139.5093)" class="st0" width="13.4" height="13.3"/>
		
			<rect x="197.4" y="62.3" transform="matrix(1 -6.981261e-03 6.981261e-03 1 -0.4766 1.4264)" class="st0" width="13.4" height="13.4"/>
		
			<rect x="171.2" y="34.8" transform="matrix(1 -6.981261e-03 6.981261e-03 1 -0.2851 1.2429)" class="st0" width="13.4" height="13.4"/>
		
			<rect x="135.2" y="21.6" transform="matrix(1 -6.981261e-03 6.981261e-03 1 -0.1942 0.9913)" class="st0" width="13.4" height="13.4"/>
		
			<rect x="205.2" y="99.4" transform="matrix(1 -6.981261e-03 6.981261e-03 1 -0.7357 1.4822)" class="st0" width="13.4" height="13.4"/>
		
			<rect x="87.2" y="174.3" transform="matrix(6.981287e-03 -1 1 6.981287e-03 -87.8096 280.6551)" class="st6" width="20.5" height="20.5"/>
		
			<rect x="138.2" y="174.2" transform="matrix(6.981287e-03 -1 1 6.981287e-03 -37.0106 331.6125)" class="st6" width="20.5" height="20.5"/>
		
			<rect x="197.4" y="171" transform="matrix(6.981287e-03 -1 1 6.981287e-03 24.9599 380.6246)" class="st0" width="13.4" height="13.4"/>
		
			<rect x="171.3" y="198.4" transform="matrix(6.981287e-03 -1 1 6.981287e-03 -28.3322 381.7432)" class="st0" width="13.4" height="13.4"/>
		
			<rect x="135.3" y="211.6" transform="matrix(6.981287e-03 -1 1 6.981287e-03 -77.3231 358.7915)" class="st0" width="13.4" height="13.4"/>
		
			<rect x="205.4" y="133.8" transform="matrix(6.981287e-03 -1 1 6.981287e-03 70.0888 351.5515)" class="st0" width="13.4" height="13.4"/>
		
			<rect x="35.2" y="170.9" transform="matrix(1 -6.981261e-03 6.981261e-03 1 -1.2389 0.2971)" class="st0" width="13.4" height="13.4"/>
		
			<rect x="61.4" y="198.5" transform="matrix(1 -6.981261e-03 6.981261e-03 1 -1.4311 0.4806)" class="st0" width="13.4" height="13.4"/>
		
			<rect x="97.4" y="211.7" transform="matrix(1 -6.981261e-03 6.981261e-03 1 -1.522 0.7322)" class="st0" width="13.4" height="13.4"/>
		
			<rect x="27.4" y="133.8" transform="matrix(1 -6.981261e-03 6.981261e-03 1 -0.9798 0.2413)" class="st0" width="13.4" height="13.4"/>
		
			<rect x="42.8" y="27.3" transform="matrix(6.981287e-03 -1 1 6.981287e-03 15.1626 77.3036)" class="st7" width="7.4" height="7.4"/>
		
			<rect x="0.1" y="108.4" transform="matrix(6.981287e-03 -1 1 6.981287e-03 -108.3026 115.1038)" class="st7" width="7.4" height="7.4"/>
		
			<rect x="4.5" y="85.3" transform="matrix(6.981287e-03 -1 1 6.981287e-03 -80.8416 96.6348)" class="st7" width="7.4" height="7.4"/>
		
			<rect x="84.3" y="4.7" transform="matrix(6.981287e-03 -1 1 6.981287e-03 79.0201 96.2936)" class="st7" width="7.4" height="7.4"/>
		
			<rect x="13.4" y="63.5" transform="matrix(6.981287e-03 -1 1 6.981287e-03 -50.1901 83.7971)" class="st7" width="7.4" height="7.4"/>
		
			<rect x="26.5" y="43.9" transform="matrix(6.981287e-03 -1 1 6.981287e-03 -17.5528 77.39)" class="st7" width="7.4" height="7.4"/>
		
			<rect x="62.7" y="14.2" transform="matrix(1 -6.981261e-03 6.981261e-03 1 -0.1235 0.4642)" class="st7" width="7.4" height="7.4"/>
		
			<rect x="107.5" y="0" transform="matrix(1 -6.981261e-03 6.981261e-03 1 -2.314533e-02 0.7766)" class="st7" width="7.4" height="7.4"/>
		
			<rect x="225.6" y="63.5" transform="matrix(6.981287e-03 -1 1 6.981287e-03 160.5056 295.9792)" class="st7" width="7.4" height="7.4"/>
		
			<rect x="235" y="85.2" transform="matrix(6.981287e-03 -1 1 6.981287e-03 148.1534 327.0453)" class="st7" width="7.4" height="7.4"/>
		
			<rect x="212.6" y="44" transform="matrix(6.981287e-03 -1 1 6.981287e-03 167.1426 263.5885)" class="st7" width="7.4" height="7.4"/>
		
			<rect x="238.8" y="108.3" transform="matrix(6.981287e-03 -1 1 6.981287e-03 128.7918 353.6709)" class="st7" width="7.4" height="7.4"/>
		
			<rect x="131.1" y="-0.1" transform="matrix(6.981287e-03 -1 1 6.981287e-03 130.2516 138.422)" class="st7" width="7.4" height="7.4"/>
		
			<rect x="154.4" y="4.6" transform="matrix(6.981287e-03 -1 1 6.981287e-03 148.7184 166.2837)" class="st7" width="7.4" height="7.4"/>
		
			<rect x="42.8" y="27.3" transform="matrix(6.981287e-03 -1 1 6.981287e-03 15.1626 77.3036)" class="st7" width="7.4" height="7.4"/>
		
			<rect x="0.1" y="108.4" transform="matrix(6.981287e-03 -1 1 6.981287e-03 -108.3026 115.1038)" class="st7" width="7.4" height="7.4"/>
		
			<rect x="196.3" y="27.3" transform="matrix(6.981287e-03 -1 1 6.981287e-03 167.5583 230.7745)" class="st7" width="7.4" height="7.4"/>
		
			<rect x="4.5" y="85.3" transform="matrix(6.981287e-03 -1 1 6.981287e-03 -80.8416 96.6348)" class="st7" width="7.4" height="7.4"/>
		
			<rect x="84.3" y="4.7" transform="matrix(6.981287e-03 -1 1 6.981287e-03 79.0201 96.2936)" class="st7" width="7.4" height="7.4"/>
		
			<rect x="13.4" y="63.5" transform="matrix(6.981287e-03 -1 1 6.981287e-03 -50.1901 83.7971)" class="st7" width="7.4" height="7.4"/>
		
			<rect x="26.5" y="43.9" transform="matrix(6.981287e-03 -1 1 6.981287e-03 -17.5528 77.39)" class="st7" width="7.4" height="7.4"/>
		
			<rect x="62.7" y="14.2" transform="matrix(1 -6.981261e-03 6.981261e-03 1 -0.1235 0.4642)" class="st7" width="7.4" height="7.4"/>
		
			<rect x="107.5" y="0" transform="matrix(1 -6.981261e-03 6.981261e-03 1 -2.314533e-02 0.7766)" class="st7" width="7.4" height="7.4"/>
		
			<rect x="176.3" y="14.1" transform="matrix(6.981287e-03 -1 1 6.981287e-03 160.9505 197.7365)" class="st7" width="7.4" height="7.4"/>
		
			<rect x="238.8" y="108.3" transform="matrix(6.981287e-03 -1 1 6.981287e-03 128.7918 353.6709)" class="st7" width="7.4" height="7.4"/>
		
			<rect x="131.1" y="-0.1" transform="matrix(6.981287e-03 -1 1 6.981287e-03 130.2516 138.422)" class="st7" width="7.4" height="7.4"/>
		
			<rect x="154.4" y="4.6" transform="matrix(6.981287e-03 -1 1 6.981287e-03 148.7184 166.2837)" class="st7" width="7.4" height="7.4"/>
		
			<rect x="196.4" y="212.5" transform="matrix(6.981287e-03 -1 1 6.981287e-03 -17.5353 414.7715)" class="st7" width="7.4" height="7.4"/>
		
			<rect x="238.8" y="131.5" transform="matrix(6.981287e-03 -1 1 6.981287e-03 105.6299 376.6692)" class="st7" width="7.4" height="7.4"/>
		
			<rect x="42.9" y="212.5" transform="matrix(6.981287e-03 -1 1 6.981287e-03 -169.931 261.3005)" class="st7" width="7.4" height="7.4"/>
		
			<rect x="235" y="154.8" transform="matrix(6.981287e-03 -1 1 6.981287e-03 78.5668 396.143)" class="st7" width="7.4" height="7.4"/>
		
			<rect x="154.5" y="235.3" transform="matrix(6.981287e-03 -1 1 6.981287e-03 -81.8921 395.4787)" class="st7" width="7.4" height="7.4"/>
		
			<rect x="225.5" y="176.7" transform="matrix(6.981287e-03 -1 1 6.981287e-03 47.2153 408.2744)" class="st7" width="7.4" height="7.4"/>
		
			<rect x="212.7" y="196.3" transform="matrix(6.981287e-03 -1 1 6.981287e-03 14.8787 414.9857)" class="st7" width="7.4" height="7.4"/>
		
			<rect x="176.3" y="226.2" transform="matrix(1 -6.981261e-03 6.981261e-03 1 -1.6007 1.2622)" class="st7" width="7.4" height="7.4"/>
		
			<rect x="131.4" y="239.9" transform="matrix(1 -6.981261e-03 6.981261e-03 1 -1.6969 0.9491)" class="st7" width="7.4" height="7.4"/>
		
			<rect x="62.7" y="226.4" transform="matrix(6.981287e-03 -1 1 6.981287e-03 -164.1274 294.9371)" class="st7" width="7.4" height="7.4"/>
		
			<rect x="13.2" y="176.6" transform="matrix(6.981287e-03 -1 1 6.981287e-03 -163.4782 195.8931)" class="st7" width="7.4" height="7.4"/>
		
			<rect x="4.4" y="154.8" transform="matrix(6.981287e-03 -1 1 6.981287e-03 -150.4261 165.5332)" class="st7" width="7.4" height="7.4"/>
		
			<rect x="26.5" y="196.3" transform="matrix(6.981287e-03 -1 1 6.981287e-03 -170.0168 228.7858)" class="st7" width="7.4" height="7.4"/>
		
			<rect x="0" y="131.6" transform="matrix(6.981287e-03 -1 1 6.981287e-03 -131.5638 138.0021)" class="st7" width="7.4" height="7.4"/>
		
			<rect x="107.7" y="239.9" transform="matrix(6.981287e-03 -1 1 6.981287e-03 -133.0236 353.2509)" class="st7" width="7.4" height="7.4"/>
		
			<rect x="84.4" y="235.3" transform="matrix(6.981287e-03 -1 1 6.981287e-03 -151.4897 325.3886)" class="st7" width="7.4" height="7.4"/>
	</g>
</g>
</svg>
